<?xml version="1.0" encoding="utf-8"?>
<!-- Generator: Adobe Illustrator 18.1.0, SVG Export Plug-In . SVG Version: 6.00 Build 0)  -->
<svg version="1.1" xmlns="http://www.w3.org/2000/svg" xmlns:xlink="http://www.w3.org/1999/xlink" x="0px" y="0px"
	 viewBox="0 0 1967.2 483" enable-background="new 0 0 1967.2 483" xml:space="preserve">
<g id="Layer_5" display="none">
	<rect x="-75.2" y="-118.8" display="inline" fill="#393A3A" width="2111.4" height="703.9"/>
</g>
<g id="Layer_2" display="none">
	<path display="inline" fill="none" stroke="#000000" stroke-miterlimit="10" d="M1546.2,339.9c46.1-24.6,162.3-69,206-34.7
		c15.2,11.9,26.7,41.3,58,56c31.3,14.7,74.7,8.7,74.7,8.7s2.3-0.7,2.5-3.7s-2.7-2.7-2.7-2.7s-65.8-6-82.8-28s-23.3-43.7-23.3-43.7
		s-15.3-75.2,6.7-145.7s23-142,83-163.5c0,0,3-3.5,0.5-5.5s-36-14.5-72.5,0.5c-32.7,13.4-144,64.2-165,62.5
		c-6.4-0.5-43.8-8.7-49-11.5c-50.5-27-71.2-60.5-78.7-50.2c-12.3,17.2,80.7,77.7,46.7,108.7c-18.4,16.7-41,6.5-59-8
		c-8.5-6.9-38-40.5-60-33s43.5,64.7,54.7,75c8.3,7.6,13.3,18.1,16.3,33c2.2,11,5.3,23.6-1.5,43.5c0,0-53.5,106-48,178
		s15,49.5,15,49.5S1472.3,379.3,1546.2,339.9z"/>
</g>
<g id="Layer_3">
	<path fill="#FFFFFF" d="M1567.1,134.4c-45.2,40.1-89.9-34.5-95.5-53.9c-9.5-32.6-10.1,11.8-6,21.7c25.2,60.2,60.7,77.9,65.2,106.8
		c2.5,16-6.2,31.4-9.5,37.8C1459.2,370.1,1489,470,1489,470s64.6-200.7,304.7-133c19.8,5.6,38.1,28.4,73.1,25.1
		c27.3-2.6,42-21,63-28c6.6-2.2,23,0,23,0c-28.7-15.6-49.3,16-82.4,21.4c-33.1,5.3-55.6-21.5-63.3-35.3
		c-103.8-186,99.8-292.1,99.8-292.1s-88.2-1.1-207.7,47.3c-24.5,9.9-44.6,7.8-65.4,2.3c-22.9-6-33-6-44.3-22.6
		c-8.8-12.9-23.6-23-36.3-29c-5.3-2.5-33.9-9.3-33.7-3.3c0.3,9.3,31.7,13.3,44.7,33.3c21.7,33.3,31.9,45.1,18.3,62"/>
	<g>
		<g>
			<path fill="#504F4E" d="M1587.3,165.3c0,0-0.6,0.5-1.8,1.4c-1.1,0.9-2.8,2.1-4.7,3.6c-3.9,2.9-9.1,6.6-14,10.5
				c-2.5,2-4.8,4-6.9,6c-1,1-2,2-2.9,3c-0.4,0.5-0.8,1-1.2,1.5c-0.4,0.5-0.7,1-1,1.4c-0.3,0.5-0.6,0.9-0.9,1.4
				c-0.2,0.5-0.5,0.9-0.7,1.3c-0.2,0.4-0.3,0.8-0.5,1.2c-0.2,0.4-0.2,0.8-0.3,1.1c-0.2,0.7-0.3,1.2-0.3,1.6
				c-0.1,0.4-0.1,0.6-0.1,0.6s-0.1-0.2-0.2-0.6c-0.1-0.4-0.3-0.9-0.4-1.7c0-0.4-0.1-0.8-0.1-1.2c0-0.5,0-1,0.1-1.5
				c0.1-0.5,0.2-1.1,0.3-1.7c0.1-0.6,0.3-1.2,0.5-1.8c0.2-0.6,0.5-1.2,0.8-1.9c0.3-0.6,0.6-1.3,1-1.9c0.8-1.3,1.6-2.6,2.7-3.8
				c0.5-0.6,1-1.2,1.6-1.8c0.5-0.6,1.1-1.2,1.7-1.8c1.2-1.2,2.5-2.2,3.8-3.3c1.3-1,2.7-2,4-2.9c1.4-0.9,2.7-1.8,4.1-2.5
				c2.7-1.5,5.3-2.8,7.6-3.7c2.3-0.9,4.3-1.6,5.7-2c0.7-0.2,1.3-0.3,1.6-0.4C1587.1,165.3,1587.3,165.3,1587.3,165.3z"/>
		</g>
		<g>
			<path fill="#504F4E" d="M1590.7,178.6c0,0-0.6,0.6-1.8,1.7c-1.1,1.1-2.7,2.5-4.7,4.2c-3.9,3.5-9.1,7.9-14.1,12.5
				c-1.2,1.1-2.5,2.3-3.6,3.5c-1.2,1.2-2.3,2.3-3.4,3.5c-1.1,1.1-2,2.3-2.9,3.4c-0.9,1.1-1.7,2.2-2.3,3.2c-0.3,0.5-0.6,1-0.9,1.5
				c-0.3,0.5-0.5,1-0.7,1.4c-0.4,0.9-0.7,1.8-0.9,2.5c-0.2,0.7-0.3,1.3-0.3,1.7c-0.1,0.4-0.1,0.6-0.1,0.6s-0.1-0.2-0.2-0.6
				c-0.1-0.4-0.3-1-0.4-1.8c-0.1-0.8-0.1-1.8,0-2.9c0.1-0.6,0.2-1.2,0.3-1.8c0.2-0.6,0.3-1.3,0.5-1.9c0.2-0.6,0.5-1.3,0.8-2
				c0.3-0.7,0.6-1.4,1-2.1c0.8-1.4,1.6-2.8,2.6-4.1c0.5-0.7,1-1.4,1.6-2c0.5-0.7,1.1-1.3,1.7-2c1.2-1.3,2.5-2.6,3.8-3.8
				c1.3-1.2,2.7-2.4,4-3.4c1.4-1.1,2.7-2.1,4.1-3c2.7-1.9,5.4-3.5,7.7-4.7c2.3-1.2,4.4-2.1,5.8-2.7c0.7-0.3,1.3-0.5,1.7-0.6
				C1590.5,178.6,1590.7,178.6,1590.7,178.6z"/>
		</g>
		<g>
			<path fill="#504F4E" d="M1595.9,189.8c0,0-0.6,0.8-1.7,2.1c-1.1,1.3-2.7,3.1-4.6,5.3c-3.8,4.3-9.1,9.9-14.1,15.6
				c-1.3,1.4-2.5,2.9-3.7,4.3c-1.2,1.4-2.4,2.8-3.4,4.2c-0.6,0.7-1.1,1.4-1.6,2.1c-0.5,0.7-1,1.3-1.4,2c-0.9,1.3-1.7,2.6-2.4,3.8
				c-0.7,1.2-1.3,2.3-1.7,3.4c-0.3,0.5-0.4,1-0.6,1.5c-0.1,0.2-0.2,0.5-0.2,0.7c-0.1,0.2-0.1,0.4-0.2,0.6c-0.1,0.4-0.2,0.8-0.3,1.1
				c0,0.3-0.1,0.6-0.1,0.8c-0.1,0.5-0.1,0.7-0.1,0.7s-0.1-0.2-0.2-0.7c-0.1-0.2-0.1-0.5-0.2-0.8c-0.1-0.3-0.1-0.7-0.1-1.2
				c0-0.2,0-0.5-0.1-0.7c0-0.2,0-0.5,0-0.8c0-0.5,0-1.1,0.1-1.7c0.2-1.2,0.5-2.6,0.9-4.1c0.5-1.4,1.1-3,1.8-4.5
				c0.4-0.8,0.8-1.6,1.2-2.3c0.4-0.8,0.9-1.6,1.4-2.4c1-1.6,2.1-3.2,3.3-4.7c1.2-1.6,2.4-3.1,3.7-4.5c1.3-1.5,2.6-2.9,4-4.3
				c1.4-1.4,2.7-2.7,4.1-3.9c2.7-2.4,5.4-4.6,7.8-6.3c2.4-1.7,4.4-3,5.9-3.9c0.7-0.5,1.3-0.8,1.7-1
				C1595.7,190,1595.9,189.8,1595.9,189.8z"/>
		</g>
		<g>
			<path fill="#504F4E" d="M1609.8,202.2c0,0-0.7,0.8-2,2.3c-1.3,1.4-3.2,3.4-5.4,5.8c-2.3,2.3-4.9,5.1-7.8,8
				c-1.4,1.4-2.9,2.9-4.4,4.5c-1.5,1.5-3,3.1-4.5,4.6c-1.5,1.5-3,3.1-4.4,4.7c-0.7,0.8-1.4,1.6-2.1,2.3c-0.7,0.8-1.4,1.5-2,2.3
				c-1.3,1.5-2.6,3-3.7,4.4c-1.1,1.4-2.2,2.8-3,4.2c-0.4,0.7-0.9,1.3-1.2,1.9c-0.4,0.6-0.7,1.2-1,1.8c-0.3,0.6-0.5,1.1-0.7,1.6
				c-0.2,0.5-0.4,1-0.5,1.4c-0.1,0.4-0.2,0.9-0.3,1.2c-0.1,0.4-0.1,0.7-0.1,0.9c-0.1,0.5-0.1,0.8-0.1,0.8s-0.1-0.3-0.2-0.8
				c-0.1-0.3-0.1-0.6-0.2-1c0-0.4,0-0.8-0.1-1.3c0-0.5,0.1-1,0.1-1.7c0-0.6,0.2-1.2,0.3-1.9c0.1-0.7,0.3-1.4,0.6-2.1
				c0.2-0.8,0.5-1.5,0.9-2.3c0.6-1.6,1.5-3.2,2.5-4.9c1-1.7,2.1-3.4,3.3-5.1c1.2-1.7,2.6-3.4,4-5.1c1.4-1.7,2.9-3.3,4.4-4.9
				c1.5-1.6,3.1-3.2,4.7-4.6c1.6-1.5,3.2-2.9,4.8-4.2c3.2-2.7,6.2-5,8.9-6.9c2.7-1.9,5-3.4,6.7-4.4
				C1608.8,202.7,1609.8,202.2,1609.8,202.2z"/>
		</g>
		<g>
			<path fill="#504F4E" d="M1622.3,209.4c0,0-0.6,0.8-1.8,2.2c-1.2,1.4-2.8,3.4-4.9,5.7c-2,2.3-4.4,5-7,7.8
				c-2.6,2.8-5.3,5.9-7.9,8.9c-1.3,1.5-2.6,3.1-3.9,4.6c-0.6,0.8-1.3,1.5-1.9,2.3c-0.6,0.8-1.2,1.5-1.8,2.2
				c-1.2,1.5-2.3,2.9-3.2,4.3c-0.5,0.7-1,1.4-1.4,2.1c-0.5,0.7-0.9,1.3-1.2,2c-0.4,0.6-0.7,1.3-1,1.9c-0.3,0.6-0.6,1.2-0.8,1.7
				c-0.1,0.3-0.3,0.5-0.4,0.8c-0.1,0.3-0.2,0.5-0.3,0.8c-0.2,0.5-0.4,1-0.4,1.4c-0.1,0.4-0.2,0.8-0.3,1.1c0,0.3-0.1,0.6-0.1,0.9
				c-0.1,0.5-0.1,0.7-0.1,0.7s-0.1-0.3-0.2-0.7c-0.1-0.2-0.1-0.5-0.2-0.9c0-0.4-0.1-0.8-0.1-1.2c-0.1-0.5,0-1,0-1.6
				c0-0.6,0.1-1.2,0.2-1.8c0.1-0.6,0.2-1.3,0.4-2c0.2-0.7,0.4-1.5,0.7-2.2c0.3-0.8,0.6-1.5,0.9-2.3c0.3-0.8,0.7-1.6,1.1-2.4
				c0.8-1.6,1.8-3.3,2.9-5c1.1-1.7,2.2-3.3,3.5-5c1.3-1.6,2.6-3.2,4-4.8c1.4-1.6,2.8-3.1,4.2-4.5c0.7-0.7,1.4-1.4,2.2-2.1
				c0.7-0.7,1.4-1.4,2.2-2c2.9-2.6,5.7-4.9,8.2-6.8c2.5-1.9,4.6-3.3,6.2-4.3C1621.4,209.9,1622.3,209.4,1622.3,209.4z"/>
		</g>
		<g>
			<path fill="#504F4E" d="M1616.5,141.9c0,0,0.1-0.8,0.5-2.2c0.4-1.4,1-3.4,1.9-5.7c0.9-2.3,2.1-4.9,3.7-7.6c0.4-0.7,0.8-1.4,1.2-2
				c0.4-0.7,0.8-1.4,1.3-2.1c0.9-1.4,1.9-2.7,2.9-4.1c1-1.3,2.1-2.6,3.3-3.8c0.6-0.6,1.1-1.2,1.7-1.8c0.6-0.6,1.2-1.1,1.8-1.6
				c1.2-1,2.5-1.9,3.8-2.7c0.6-0.4,1.3-0.7,1.9-1c0.6-0.3,1.3-0.6,1.9-0.8c0.6-0.2,1.2-0.4,1.8-0.5c0.6-0.1,1.2-0.2,1.7-0.3
				c1.1-0.1,2-0.1,2.8,0.1c0.7,0.1,1.3,0.3,1.7,0.4c0.4,0.1,0.6,0.2,0.6,0.2s-0.2,0-0.6,0.1c-0.4,0.1-0.9,0.1-1.6,0.3
				c-0.7,0.1-1.5,0.5-2.3,0.8c-0.4,0.2-0.9,0.4-1.3,0.7c-0.4,0.3-0.9,0.6-1.4,0.9c-0.9,0.7-1.9,1.4-2.9,2.3c-1,0.9-2,1.8-3,2.9
				c-1,1-2,2.2-3,3.4c-1,1.2-2,2.4-2.9,3.7c-1.9,2.5-3.8,5.1-5.6,7.5c-1.8,2.4-3.4,4.7-4.9,6.7c-1.5,2-2.7,3.6-3.6,4.7
				C1617.1,141.3,1616.5,141.9,1616.5,141.9z"/>
		</g>
		<g>
			<path fill="#504F4E" d="M1629.3,145.8c0,0,0.3-0.9,0.8-2.3c0.6-1.4,1.5-3.5,2.7-5.8c1.2-2.3,2.8-5,4.6-7.7
				c0.5-0.7,0.9-1.4,1.4-2.1c0.5-0.7,1-1.4,1.5-2.1c1.1-1.4,2.2-2.7,3.4-4.1c1.2-1.3,2.4-2.6,3.7-3.8c1.3-1.2,2.6-2.3,4-3.4
				c0.7-0.5,1.3-1,2-1.4c0.7-0.5,1.4-0.9,2.1-1.3c1.4-0.8,2.7-1.4,4-1.9c0.6-0.2,1.3-0.4,1.9-0.6c0.6-0.2,1.2-0.2,1.8-0.3
				c1.1-0.1,2.1-0.1,2.9,0c0.8,0,1.4,0.3,1.8,0.4c0.4,0.1,0.6,0.2,0.6,0.2s-0.2,0-0.6,0.1c-0.4,0-1,0.1-1.7,0.3
				c-0.7,0.1-1.6,0.5-2.5,0.9c-0.9,0.4-1.9,1-2.9,1.6c-1,0.7-2.1,1.5-3.2,2.4c-0.5,0.5-1.1,0.9-1.7,1.4c-0.6,0.5-1.1,1-1.7,1.6
				c-1.1,1.1-2.3,2.2-3.4,3.4c-1.1,1.2-2.3,2.4-3.4,3.7c-2.3,2.5-4.5,5.1-6.6,7.5c-2.1,2.4-4.1,4.7-5.8,6.7c-1.7,2-3.2,3.6-4.2,4.7
				C1629.9,145.2,1629.3,145.8,1629.3,145.8z"/>
		</g>
		<g>
			<path fill="#504F4E" d="M1640.1,151.5c0,0,0.4-0.9,1.3-2.4c0.9-1.5,2.1-3.5,3.8-5.9c1.7-2.4,3.8-5.1,6.2-7.8
				c0.6-0.7,1.2-1.4,1.8-2.1c0.6-0.7,1.3-1.4,2-2.1c1.3-1.4,2.7-2.7,4.2-4c1.5-1.3,2.9-2.6,4.5-3.8c1.5-1.2,3.1-2.3,4.6-3.3
				c1.6-1,3.1-1.9,4.7-2.7c0.8-0.4,1.5-0.7,2.3-1c0.7-0.3,1.5-0.6,2.2-0.8c1.4-0.5,2.8-0.8,4-0.9c0.6-0.1,1.2-0.1,1.7-0.1
				c0.3,0,0.5,0,0.8,0c0.2,0,0.5,0,0.7,0.1c0.4,0,0.8,0.1,1.2,0.1c0.3,0.1,0.6,0.2,0.8,0.2c0.4,0.1,0.7,0.2,0.7,0.2s-0.2,0-0.7,0.1
				c-0.2,0-0.5,0.1-0.8,0.1c-0.3,0.1-0.7,0.2-1.1,0.2c-0.2,0-0.4,0.1-0.6,0.1c-0.2,0.1-0.4,0.2-0.7,0.2c-0.5,0.2-1,0.3-1.5,0.6
				c-0.5,0.2-1.1,0.4-1.6,0.8c-0.6,0.3-1.1,0.6-1.7,1c-0.6,0.4-1.2,0.7-1.8,1.1c-0.6,0.4-1.3,0.8-1.9,1.3c-1.3,0.9-2.6,1.9-4,3
				c-1.4,1.1-2.7,2.3-4.1,3.4c-1.4,1.2-2.8,2.4-4.2,3.7c-2.8,2.5-5.6,5.1-8.2,7.5c-2.6,2.4-5.1,4.7-7.2,6.6
				c-2.1,1.9-3.9,3.5-5.2,4.6C1640.8,150.9,1640.1,151.5,1640.1,151.5z"/>
		</g>
		<g>
			<path fill="#504F4E" d="M1648.2,168c0,0,0.6-1,1.6-2.7c1.1-1.7,2.7-4.1,4.7-6.9c2-2.8,4.5-6,7.4-9.3c2.8-3.3,6-6.6,9.4-9.9
				c1.7-1.6,3.4-3.2,5.2-4.6c1.7-1.5,3.5-2.9,5.3-4.2c0.9-0.6,1.8-1.3,2.6-1.9c0.9-0.6,1.8-1.1,2.6-1.7c0.9-0.5,1.7-1,2.6-1.4
				c0.9-0.4,1.7-0.9,2.5-1.2c1.6-0.7,3.2-1.3,4.6-1.6c1.4-0.4,2.7-0.5,3.7-0.5c0.5,0,1,0,1.4,0.1c0.4,0,0.7,0.1,1,0.2
				c0.5,0.1,0.8,0.2,0.8,0.2s-0.3,0-0.8,0.1c-0.3,0-0.6,0-1,0.1c-0.4,0.1-0.8,0.2-1.3,0.3c-0.9,0.3-2,0.7-3.2,1.4
				c-1.2,0.6-2.5,1.4-3.9,2.4c-1.4,0.9-2.8,2-4.3,3.2c-0.7,0.6-1.5,1.2-2.3,1.9c-0.8,0.7-1.6,1.3-2.4,2c-1.6,1.4-3.2,2.9-4.8,4.4
				c-1.6,1.5-3.3,3-4.9,4.6c-1.7,1.5-3.3,3.1-4.9,4.7c-1.6,1.6-3.2,3.1-4.7,4.6c-3.1,3-5.9,5.8-8.4,8.1c-2.5,2.4-4.6,4.3-6.1,5.7
				C1649.1,167.3,1648.2,168,1648.2,168z"/>
		</g>
		<g>
			<path fill="#504F4E" d="M1651.8,185.7c0,0,0.6-1,1.7-2.7c1.1-1.7,2.8-4.1,5-6.9c2.1-2.8,4.7-5.9,7.7-9.2c3-3.2,6.2-6.6,9.7-9.8
				c1.7-1.6,3.5-3.1,5.3-4.6c1.8-1.5,3.6-2.9,5.4-4.1c0.9-0.6,1.8-1.3,2.7-1.8c0.9-0.6,1.8-1.1,2.7-1.6c0.9-0.5,1.8-1,2.6-1.4
				c0.9-0.4,1.7-0.8,2.5-1.2c1.7-0.7,3.2-1.2,4.7-1.6c1.4-0.4,2.7-0.5,3.8-0.5c0.5,0,1,0,1.4,0.1c0.4,0,0.7,0.1,1,0.2
				c0.5,0.1,0.8,0.2,0.8,0.2s-0.3,0-0.8,0.1c-0.3,0-0.6,0-1,0.1c-0.4,0.1-0.8,0.2-1.3,0.3c-0.9,0.3-2.1,0.7-3.3,1.4
				c-1.2,0.6-2.5,1.4-4,2.3c-1.4,0.9-2.9,2-4.5,3.2c-1.5,1.2-3.1,2.5-4.8,3.9c-1.6,1.4-3.3,2.8-5,4.3c-1.7,1.5-3.4,3-5.1,4.6
				c-1.7,1.5-3.4,3.1-5,4.6c-1.7,1.5-3.3,3.1-4.9,4.5c-3.2,2.9-6.1,5.7-8.7,8c-2.6,2.3-4.8,4.3-6.3,5.6
				C1652.7,185,1651.8,185.7,1651.8,185.7z"/>
		</g>
	</g>
	<g>
		<path fill="#504F4E" d="M1729.9,221.4c-3.8-3.9-9-2.7-13.4-0.8c-2.7,1.2-4.9,2.4-7,4.5c-1,0.9-1.9,2.7-2.2,4
			c-0.3,1.1,0,2.1,0.1,3.1c-1.6,1.6-2.9,3.4-2.8,6.1c0.1,3.7,2.5,6.3,5.5,8.1c0.7,0.4,1.5,0.7,2.2,1c0.1,0.2,0.3,0.6,0.5,1
			c1.2,2.9,3.2,5.3,6.2,6.2c2.7,5.5,12.7,4.3,12.3-3c-0.2-5.6-1-11,0.3-16.5C1732.6,230.4,1733.4,225.1,1729.9,221.4z"/>
	</g>
	<g>
		<path fill="#504F4E" d="M1676,226c-1.9-1-4.3-1-6.3,0c-0.9-0.4-1.9-0.6-3-0.6l-2.7,0.1c-0.9,0-1.8,0.3-2.7,0.7
			c-2.8,0.7-5.5,2-7.1,4.1c-2.2,2.8-2.5,6.6,0.3,9.2c1.6,1.5,4.1,2.1,6.3,1.6c1.7,2.7,4.1,4.7,7.2,4.6c5.8-0.2,8.6-6.3,10.6-10.9
			C1680.1,231.6,1679.3,227.8,1676,226z"/>
	</g>
	<g>
		<path fill="#504F4E" d="M1675.3,265.6c-1.5-7.4-10.1-7.8-15.5-5.2c-2.8,1.4-6.1,4.3-9.3,4.7c-4,0.5-7.5-0.3-11.2,1.7
			c-5.9,3.2-8.6,8.9-8.8,15.4c-0.1,2.2,0.8,3.9,2.2,4.9c-0.1,0.5-0.3,0.9-0.4,1.4c-1.3,4.2,1.6,7.1,5,7.7c1.3,3.3,4.2,5.7,8.2,5.9
			c6.1,0.4,10.3-5.9,12.8-10.5c1.4-2.5,2.4-5.1,3.7-7.6c0.9-1.8,5.6-2.2,7.3-3.2C1675.1,277.6,1676.5,271.7,1675.3,265.6z
			 M1650.1,278.7c-0.1-0.1-0.2-0.2-0.3-0.4c-0.1-0.1-0.3-0.3-0.4-0.4c0.4,0,0.8,0,1.2,0C1650.4,278.2,1650.2,278.5,1650.1,278.7z"/>
	</g>
	<g>
		<path fill="#504F4E" d="M1688,207c-1.9-0.4-3.6-0.4-5.5,0.2c-1.2,0.4-2.2,1.2-3,1.5c-0.4,0.1-0.7,0.2-1.1,0.3
			c-0.1,0-0.3,0.1-0.3,0.1c-0.1,0-0.2,0-0.3,0c-0.7-0.5-1.5-0.9-2.3-1.1c-2.1-0.5-4,0-5.5,1.2c-4.3,2-4,9.3,0.2,11.5
			c2.8,1.4,6,1.7,9.1,1.3c1.4-0.2,2.8-0.4,4.2-0.8c0.9-0.3,2-0.8,2.8-1.2c0.1-0.1,0.3-0.1,0.4-0.2c2.9,0,5.6-1.8,6.4-4.9
			C1693.5,211.6,1691.4,207.7,1688,207z"/>
	</g>
	<g>
		<path fill="#504F4E" d="M1692.5,283.4c-1.9,0.1-3.5,0.9-4.7,2.2c-0.4,0.2-0.8,0.5-1.1,0.7c-1.7,0.3-3,0.7-4.7,1.5
			c-2.6,1.2-3.6,4.9-2.8,7.4c0.8,2.6,3.1,4.4,5.8,4.6c1.1,0.8,2.5,1.3,4,1.3c2.6-0.1,4.8-1.7,5.8-4c0.4-0.2,0.7-0.3,1-0.5
			c2.4-1.5,3.4-4.2,3.4-7C1699.2,286.1,1696,283.3,1692.5,283.4z"/>
	</g>
	<g>
		<g>
			<polyline fill="none" stroke="#9BCA3B" stroke-width="12" stroke-miterlimit="10" points="1845,243.2 1851.7,250.7 1844.3,257.3 
							"/>
			
				<line fill="none" stroke="#9BCA3B" stroke-width="12" stroke-miterlimit="10" stroke-dasharray="20.6869,20.6869" x1="1828.9" y1="271.2" x2="1682.7" y2="402.5"/>
			<polyline fill="none" stroke="#9BCA3B" stroke-width="12" stroke-miterlimit="10" points="1675,409.4 1667.6,416.1 1660.9,408.7 
							"/>
			
				<line fill="none" stroke="#9BCA3B" stroke-width="12" stroke-miterlimit="10" stroke-dasharray="19.0275,19.0275" x1="1648.2" y1="394.5" x2="1476.5" y2="203.5"/>
			<polyline fill="none" stroke="#9BCA3B" stroke-width="12" stroke-miterlimit="10" points="1470.1,196.4 1463.4,189 1470.9,182.3 
							"/>
			
				<line fill="none" stroke="#9BCA3B" stroke-width="12" stroke-miterlimit="10" stroke-dasharray="20.6871,20.6871" x1="1486.2" y1="168.5" x2="1632.4" y2="37.1"/>
			<polyline fill="none" stroke="#9BCA3B" stroke-width="12" stroke-miterlimit="10" points="1640.1,30.2 1647.5,23.5 1654.2,30.9 
							"/>
			
				<line fill="none" stroke="#9BCA3B" stroke-width="12" stroke-miterlimit="10" stroke-dasharray="19.0276,19.0276" x1="1667" y1="45.1" x2="1838.7" y2="236.1"/>
		</g>
	</g>
</g>
<g id="Layer_4">
	<rect x="0" y="101.9" fill="none" width="1956.2" height="498.5"/>
	<text transform="matrix(1 0 0 1 -1.658935e-05 273.4177)" fill="#FFFFFF" font-family="'Lobster-Regular'" font-size="245">MantaMatcher</text>
	
		<text transform="matrix(1 0 0 1 17.1177 351.6579)" fill="#FFFFFF" font-family="'HelveticaNeue-Thin'" font-size="61.8447" letter-spacing="15">THE WILDBOOK FOR MANTA RAYS</text>
</g>
</svg>
